<svg xmlns="http://www.w3.org/2000/svg" xmlns:xlink="http://www.w3.org/1999/xlink" version="1.1" style="enable-background:new 0 0 460.427 460.427;" xml:space="preserve" width="150" height="150"><rect id="backgroundrect" width="100%" height="100%" x="0" y="0" fill="none" stroke="none" class="" style=""/>
















<g class="currentLayer" style=""><title>Layer 1</title><g id="XMLID_800_" class="selected" fill="#ffffff" fill-opacity="1" stroke="#000000" stroke-opacity="1" stroke-width="2">
	<g id="svg_1" fill="#ffffff" fill-opacity="1" stroke="#000000" stroke-opacity="1" stroke-width="2">
		<g id="svg_2" fill="#ffffff" fill-opacity="1" stroke="#000000" stroke-opacity="1" stroke-width="2">
			<circle cx="76.11458637830215" cy="37.164668913238906" r="6.376666479987989" id="svg_3" fill="#ffffff" fill-opacity="1" stroke="#000000" stroke-opacity="1" stroke-width="2"/>
			<path d="M116.55499997597131,96.0747354835844 c-1.7344402950770426,0 -3.399286672932614,0.2606099983819522 -4.948456674866007,0.7346313069143081 l-0.7335575058479578,-1.8861165456667273 c1.4269104176254022,-0.38247212877288905 2.9403430026072264,-0.5928317995979768 4.508322171357236,-0.6015798323305482 c1.904898369352612,-0.010579016327760768 3.5516409241471907,-1.2517824512444569 3.6699035605066532,-2.8968194902112505 c0.12907790727901589,-1.7984327757193241 -1.5183699912711872,-3.2917016189070876 -3.5688042888673515,-3.2917016189070876 c-2.4012252587260194,0 -4.716163464680821,0.3244909815918926 -6.8909733778518465,0.9238329450838758 l-4.869223059651021,-12.519858938661447 h2.1900923612095284 c0.8720399965352802,1.6202170391208934 2.570742874660756,2.840058998760381 4.628230609813149,3.2506062093261714 c0.7826964541563629,0.15624393345615903 1.5329470955540647,-0.3584658994137392 1.5329470955540647,-1.0560706491808851 v-9.345340269846476 c0,-0.6929255694683284 -0.7439025475970962,-1.2125180252587293 -1.524482970486588,-1.0576981901543856 c-2.0612495685157173,0.40891966959229087 -3.7634791654193087,1.6299822849619032 -4.636694734880624,3.2524371929213625 h-1.04931639378187 c-0.6493864843436088,0.7224247496130453 -1.4558295116059452,1.3307181884592871 -2.3723061647454764,1.7890744151216906 c-2.3360985186234933,1.1685744189741856 -4.31929004485026,0.9472288465779612 -5.701998920456616,0.8776514699607664 c0.33151156514282754,0.8522211422498033 2.2982450704050565,5.909194389541117 2.720510865438047,6.994967661488407 c-0.4020459407051312,0.3244909815918926 0.8358323504132975,-1.2906399919868097 -16.087245263664983,21.738861340439858 h-0.1608183762820524 c-0.6028337964724877,1.748589333405837 -1.4720524179852772,3.163329324622146 -3.3698973497816547,4.368523415500118 c-0.34514821108487265,0.21910770355766024 -0.7093407035715666,0.4146160629995463 -1.0869347274150982,0.5875422914340971 h4.663968026764718 c1.9246479945100583,0 3.715986019207357,-0.8510004865196763 4.749314621195103,-2.256178674516663 l13.601613868849405,-18.499037590063136 l1.548229543592562,3.9807617785633505 c-6.355382352748757,3.473172437452524 -10.59637924072486,9.591302399466915 -10.638229636891827,16.55412612672867 c-0.01010992716393021,1.6869462190344608 1.5002661682101968,3.1378989969111823 3.448660735826227,3.1960835867138657 c2.0328007037055897,0.06082934388462441 3.702819602435726,-1.346993598194305 3.702819602435726,-3.0923278496531363 c0,-4.259681612897195 2.294248122456528,-8.062227654862113 5.8668142446872,-10.538327803423185 l0.8264277670049904,2.124754740906405 c-3.156648420998291,2.473048509235758 -5.086233821797706,6.097989142467309 -4.891794059830957,10.100519281551245 c0.32163675256410446,6.617988483501087 6.515495385275186,12.004742220548176 14.162127039984508,12.314178448135175 c8.530192265919782,0.34524212900403856 15.59726646809218,-5.560086850725012 15.59726646809218,-12.866728608638985 C131.44151505298072,101.85331971000201 124.76355548932702,96.0747354835844 116.55499997597131,96.0747354835844 zM116.55499997597131,113.58585570273203 c-2.9504529297711564,0 -5.350737730156346,-2.0769457248097933 -5.350737730156346,-4.62994718436882 s2.400284800385189,-4.62994718436882 5.350737730156346,-4.62994718436882 s5.350737730156346,2.0769457248097933 5.350737730156346,4.62994718436882 C121.90573770612767,111.50890997792227 119.50545290574247,113.58585570273203 116.55499997597131,113.58585570273203 z" id="svg_4" fill="#ffffff" fill-opacity="1" stroke="#000000" stroke-opacity="1" stroke-width="2"/>
			<path d="M86.53698042416619,81.60162393409927 c0.7328521620923341,-2.1255685113931553 -0.549227671045138,-4.380933415423066 -2.9424590338740964,-5.1757837383569365 l-5.547528637975174,-1.8425798246255585 l0.3308062213872046,-1.4216570403536926 c-1.6657868361964039,-0.4884657346721838 -2.9318788775397504,-1.6946770386585917 -3.3353355057561265,-3.171263586867965 l-3.201790421358166,-11.76020418927955 l6.731800803666249,9.97662272494343 c0.6900613075845361,1.0229095018457877 1.9262937966065103,1.6788085141669529 3.292779765833538,1.747572120297398 l16.303315567470836,0.8198737654014583 c2.257335132578922,0.11270721241498967 4.1869205333783395,-1.378120319312526 4.317879357339014,-3.3258799793506233 c0.1309588239606774,-1.949997528876665 -1.5898448251743238,-3.622702764392986 -3.843653238975126,-3.736223747294726 l-14.115574352113395,-0.709811307068409 l-5.626997367775369,-8.338909620357393 l3.1897995775125736,2.546694738286708 l0.3818260863772701,-1.6407647439113522 c0.6646689323821072,-2.855317195386958 -1.4718173034000674,-5.635970948614529 -4.771415392204625,-6.211103240125674 l-10.654687657856366,-1.8568208081436965 c-3.299833203389767,-0.5749288488894582 -6.5133793540083165,1.273550811765042 -7.178048286390422,4.128664564530313 l-3.423503475209006,14.709918761129607 v-14.156961715382423 c0,-0.9858829446986275 -0.9237652052809688,-1.785209005309624 -2.0631304851973784,-1.785209005309624 H30.853852751090876 c-1.1393652799164116,0 -2.0631304851973784,0.7993260606109998 -2.0631304851973784,1.785209005309624 v25.97738492068153 h-1.4304371364035173 c-2.3041229350352492,0 -4.171873199925046,1.6161481866871388 -4.171873199925046,3.609885879226661 c0,1.9937376925395218 1.8677502648897986,3.609885879226661 4.171873199925046,3.609885879226661 h17.16430517850136 v5.501291933057267 c-7.012762732989425,2.295036215259015 -12.281210358323081,7.662259460624082 -13.609372650161257,14.204974174100718 c-0.29977109613978986,1.4769934334527492 1.0149896643415486,2.831717851271184 2.7508406469298374,2.831717851271184 h3.6499188207640003 c-0.03174046900303666,0.3425973749220984 -0.05243055250131243,0.6878395039261358 -0.05243055250131243,1.037353927985615 c0,7.102588808361202 6.677959563653691,12.881173034778815 14.886515077009367,12.881173034778815 c8.20832039877047,0 14.886515077009367,-5.778380783795922 14.886515077009367,-12.881173034778815 c0,-0.3430042601654735 -0.02021985432786042,-0.6817362252755041 -0.050784750404858574,-1.0180268789252844 h3.5314210698193316 c-3.6466272165710927,-1.6775878584368265 -5.528014127402936,-5.40608078610742 -4.313647294805277,-8.928893223251745 l4.698294756205037,-13.628417784237758 h4.094990730562135 l-5.032862810955564,14.599042532309808 c-0.7744674436740931,2.246209986053966 0.7022872660153348,4.6104166926868 3.298187401293315,5.280556688526104 c2.596135249863185,0.6701399958393048 5.328401844561616,-0.607886553602867 6.1026341736505,-2.8538930970351446 L86.53698042416619,81.60162393409927 zM52.14982653544676,113.58585570273203 c-2.9504529297711564,0 -5.350737730156346,-2.0769457248097933 -5.350737730156346,-4.62994718436882 c0,-0.3566349158185495 0.0484336045527818,-0.7035045857960893 0.1370718031760766,-1.037353927985615 h10.42733185396054 c0.08863819862329503,0.3336458995678394 0.1370718031760766,0.6805155695453783 0.1370718031760766,1.037353927985615 C57.50056426560308,111.50890997792227 55.10004435063271,113.58585570273203 52.14982653544676,113.58585570273203 zM56.444429548850216,78.16079887349512 v-3.4988062077851767 c0.6879452763176688,1.362658680064257 1.754425034819698,2.567649328320542 3.1089201602011323,3.4988062077851767 H56.444429548850216 z" id="svg_5" fill="#ffffff" fill-opacity="1" stroke="#000000" stroke-opacity="1" stroke-width="2"/>
		</g>
	</g>
</g><g id="svg_6">
</g><g id="svg_7">
</g><g id="svg_8">
</g><g id="svg_9">
</g><g id="svg_10">
</g><g id="svg_11">
</g><g id="svg_12">
</g><g id="svg_13">
</g><g id="svg_14">
</g><g id="svg_15">
</g><g id="svg_16">
</g><g id="svg_17">
</g><g id="svg_18">
</g><g id="svg_19">
</g><g id="svg_20">
</g></g></svg>