<svg xmlns="http://www.w3.org/2000/svg" xmlns:xlink="http://www.w3.org/1999/xlink" version="1.1" style="" xml:space="preserve" width="150" height="150"><rect id="backgroundrect" width="100%" height="100%" x="0" y="0" fill="none" stroke="none" class="" style=""/>

<g class="currentLayer" style=""><title>Layer 1</title><g id="svg_1" class="">
	<path d="M84.88468889712522,97.83023569473484 H56.09116735155301 c-0.6627496982914368,0 -1.1997653433139017,-0.6105953505467256 -1.1997653433139017,-1.3641523243590217 v-12.049691296993435 c0,-0.7535569738122974 0.5370156450224716,-1.3641523243590217 1.1997653433139017,-1.3641523243590217 h28.79352154557223 c0.6627496982914368,0 1.1997653433139017,0.6105953505467256 1.1997653433139017,1.3641523243590217 v12.049691296993435 C86.0844542404391,97.2196403441881 85.54743859541668,97.83023569473484 84.88468889712522,97.83023569473484 zM57.29093269486691,95.1019310460168 h26.393990858944427 v-9.321386648275388 H57.29093269486691 V95.1019310460168 z" id="svg_2"/>
	<path d="M122.47599572218863,79.34005106678738 h-6.065715539520671 c-0.130390870056698,0 -0.2601467196423408,-0.024067613344372355 -0.3833406910270819,-0.07148081163278529 l-22.461309081698662,-8.614520844351176 c-0.4876957217705068,-0.18676467955233086 -0.8162129787964733,-0.7073471561911048 -0.8162129787964733,-1.2926715127262358 v-22.255562735674506 c0,-0.7535569738122974 0.5370156450224716,-1.3641523243590217 1.1997653433139017,-1.3641523243590217 h12.530647281844802 c4.004227416984664,0 7.993637689644703,5.316535787771839 12.196838187560044,16.253099967588057 c2.964275558886358,7.712466696204102 4.933685713119339,15.529627510456224 4.953583021212407,15.607847253825431 c0.10266164282061525,0.411074835921882 0.03005763562995345,0.8539189214583297 -0.19643299904645575,1.1954383548149718 C123.20690428437325,79.1393271714953 122.85256286152443,79.34005106678738 122.47599572218863,79.34005106678738 zM116.6071365286951,76.61198709420276 H120.87214568579316 c-3.0857761423482812,-11.560637393835787 -9.29606467577922,-28.141778931307634 -14.392527302979078,-28.141778931307634 h-11.33109361202125 v19.91185854819953 L116.6071365286951,76.61198709420276 z" id="svg_3"/>
	<path d="M93.94897110096926,70.72553022243619 H20.76497854674408 c-0.6627496982914368,0 -1.1997653433139017,-0.6105953505467256 -1.1997653433139017,-1.3641523243590217 v-15.889679006088032 c0,-4.262374323288333 3.0495799754981268,-7.7300360539454935 6.79852916311854,-7.7300360539454935 h67.58522873442054 c0.6627496982914368,0 1.1997653433139017,0.6105953505467256 1.1997653433139017,1.3641523243590217 v22.255562735674506 C95.14873644428316,70.11517554802292 94.61172079926067,70.72553022243619 93.94897110096926,70.72553022243619 zM21.964743890057967,67.99722557371814 H92.74920575765537 v-19.52725808695646 H26.36374236654872 c-2.425778199431424,0 -4.398998476490737,2.243823592095829 -4.398998476490737,5.001731405227452 V67.99722557371814 z" id="svg_4"/>
	<rect x="69.28816425385104" y="47.105814251640936" width="2.3995307802943557" height="22.255562897261264" id="svg_5"/>
	<rect x="43.0268905416356" y="47.105814251640936" width="2.3995307802943557" height="22.255562897261264" id="svg_6"/>
	<path d="M39.44749247868272,106.83705863659928 c-5.029785477739049,0 -9.121434046238997,-4.6517883072002775 -9.121434046238997,-10.36929053328936 c0,-5.718946282889747 4.0916485684999495,-10.37121594235691 9.121434046238997,-10.37121594235691 c5.028515436796939,0 9.119740658316184,4.652269659467165 9.119740658316184,10.37121594235691 C48.56723313699892,102.18527032939899 44.47600791547965,106.83705863659928 39.44749247868272,106.83705863659928 zM39.44749247868272,88.82485680967105 c-3.706614489550058,0 -6.721903359611196,3.4284315209058347 -6.721903359611196,7.6429112936388695 c0,4.213517068199258 3.0152888700611373,7.640985884571318 6.721903359611196,7.640985884571318 c3.7057677955886508,0 6.7202099716883845,-3.427468816372059 6.7202099716883845,-7.640985884571318 C46.167702450371124,92.25328833057686 43.15326027427136,88.82485680967105 39.44749247868272,88.82485680967105 z" id="svg_7"/>
	<path d="M39.44749247868272,101.00427254259068 c-2.2018276466392384,0 -3.992797048505668,-2.0358794128004525 -3.992797048505668,-4.53818917221484 c0,-2.502069083280944 1.7909694018664293,-4.53818917221484 3.992797048505668,-4.53818917221484 c2.2005576056971288,0 3.9913153340732057,2.0358794128004525 3.9913153340732057,4.53818917221484 C43.43859613926558,98.96815245365677 41.64805008437987,101.00427254259068 39.44749247868272,101.00427254259068 zM39.44749247868272,94.65619884687901 c-0.8786566584502506,0 -1.5934780353682165,0.8118005981056786 -1.5934780353682165,1.8098845234967964 c0,0.9983246015245638 0.7146097034276176,1.8098845234967964 1.5934780353682165,1.8098845234967964 c0.8778099644888469,0 1.5917846474454027,-0.8118005981056786 1.5917846474454027,-1.8098845234967964 C41.03927712612812,95.46775876885125 40.32530244317157,94.65619884687901 39.44749247868272,94.65619884687901 z" id="svg_8"/>
	<path d="M101.54804940459826,106.83705863659928 c-5.029785477739049,0 -9.121434046238997,-4.6517883072002775 -9.121434046238997,-10.36929053328936 c0,-5.718946282889747 4.0916485684999495,-10.37121594235691 9.121434046238997,-10.37121594235691 c5.028515436796939,0 9.119740658316184,4.652269659467165 9.119740658316184,10.37121594235691 C110.66779006291442,102.18527032939899 106.57656484139515,106.83705863659928 101.54804940459826,106.83705863659928 zM101.54804940459826,88.82485680967105 c-3.706614489550058,0 -6.721903359611196,3.4284315209058347 -6.721903359611196,7.6429112936388695 c0,4.213517068199258 3.0152888700611373,7.640985884571318 6.721903359611196,7.640985884571318 c3.7057677955886508,0 6.720421645178734,-3.427468816372059 6.720421645178734,-7.640985884571318 C108.26847104977696,92.25328833057686 105.25381720018686,88.82485680967105 101.54804940459826,88.82485680967105 z" id="svg_9"/>
	<path d="M116.87744357587428,97.83023569473484 h-7.409207182783432 c-0.6627496982914368,0 -1.1997653433139017,-0.6105953505467256 -1.1997653433139017,-1.3641523243590217 c0,-4.213517068199258 -3.0146538495900823,-7.640985884571318 -6.720421645178734,-7.640985884571318 c-3.706614489550058,0 -6.721903359611196,3.427468816372059 -6.721903359611196,7.640985884571318 c0,0.7535569738122974 -0.5370156450224716,1.3641523243590217 -1.1997653433139017,1.3641523243590217 H47.36746779368502 c-0.6623263513107266,0 -1.1997653433139017,-0.6105953505467256 -1.1997653433139017,-1.3636709720921343 c-0.000846693961407141,-4.213517068199258 -3.0152888700611373,-7.6414672368382055 -6.7202099716883845,-7.6414672368382055 c-3.7057677955886508,0 -6.72126833914014,3.427950168638946 -6.721903359611196,7.6414672368382055 c0,0.7530756215454147 -0.537438992003179,1.3636709720921343 -1.1997653433139017,1.3636709720921343 H26.36374236654872 C22.614793178928302,97.83023569473484 19.565213203430176,94.36257396407771 19.565213203430176,90.10019964078933 v-20.738821742712158 c0,-0.7535569738122974 0.5370156450224716,-1.3641523243590217 1.1997653433139017,-1.3641523243590217 h73.18399255422517 c0.130390870056698,0 0.2601467196423408,0.024067613344372355 0.38355236451743185,0.07148081163278529 l22.274613063208392,8.543040032718391 h5.869070866983865 c0.6627496982914368,0 1.1997653433139017,0.6105953505467256 1.1997653433139017,1.3641523243590217 v12.124300898360987 C123.67576106550246,94.36257396407771 120.62618109000437,97.83023569473484 116.87744357587428,97.83023569473484 zM110.58925919799388,95.1019310460168 h6.287972704390041 c2.4255665259410724,0 4.398998476490737,-2.243823592095829 4.398998476490737,-5.001731405227452 v-10.760148574001965 h-4.8661618696971205 c-0.130390870056698,0 -0.2601467196423408,-0.024067613344372355 -0.3833406910270819,-0.07148081163278529 l-22.274613063208392,-8.543040032718391 H21.964743890057967 v19.374669418353143 c0,2.757907813131621 1.9732202770593146,5.001731405227452 4.398998476490737,5.001731405227452 h4.041270277796225 c0.5901456911007686,-5.074896949794342 4.4203774990162685,-9.005138208930337 9.042479834337783,-9.005138208930337 c4.6212556413601105,0 8.451275775785255,3.9302412591359954 9.040998119905321,9.005138208930337 h44.01686729818205 c0.5892989971393616,-5.075378302061229 4.419954152035564,-9.005138208930337 9.042903181318486,-9.005138208930337 C106.16994006642939,86.09679283708647 109.99996020085452,90.02655274395558 110.58925919799388,95.1019310460168 z" id="svg_10"/>
	<path d="M101.54804940459826,101.00427254259068 c-2.2018276466392384,0 -3.992797048505668,-2.0358794128004525 -3.992797048505668,-4.53818917221484 c0,-2.502069083280944 1.7909694018664293,-4.53818917221484 3.992797048505668,-4.53818917221484 c2.2007692791874796,0 3.9913153340732057,2.0358794128004525 3.9913153340732057,4.53818917221484 C105.53936473867141,98.96815245365677 103.74881868378571,101.00427254259068 101.54804940459826,101.00427254259068 zM101.54804940459826,94.65619884687901 c-0.8786566584502506,0 -1.5934780353682165,0.8118005981056786 -1.5934780353682165,1.8098845234967964 c0,0.9983246015245638 0.7148213769179693,1.8098845234967964 1.5934780353682165,1.8098845234967964 c0.8780216379792009,0 1.5917846474454027,-0.8118005981056786 1.5917846474454027,-1.8098845234967964 C103.13983405204362,95.46775876885125 102.4260710425774,94.65619884687901 101.54804940459826,94.65619884687901 z" id="svg_11"/>
	<rect x="116.7438743994202" y="83.05223951398806" width="5.732329659791486" height="2.7283047552184074" id="svg_12"/>
	<path d="M123.80932703791444,60.44336444945347 c-2.2786651236369355,0 -4.132713225628196,-2.1073602244332372 -4.132713225628196,-4.6979981248214715 v-5.30546468563343 c0,-2.5906379003882343 1.8538364285009088,-4.6979981248214715 4.132713225628196,-4.6979981248214715 S127.94204026354265,47.84926373861033 127.94204026354265,50.43990163899856 v5.30546468563343 C127.94204026354265,58.3357635488868 126.08820383504175,60.44336444945347 123.80932703791444,60.44336444945347 zM123.80932703791444,48.4699674867617 c-0.9557058089383001,0 -1.7331825390003928,0.8837627620053519 -1.7331825390003928,1.9696934761034366 v5.30546468563343 c0,1.0861713902315209 0.7774767300620955,1.9696934761034366 1.7331825390003928,1.9696934761034366 s1.7331825390003928,-0.8837627620053519 1.7331825390003928,-1.9696934761034366 v-5.30546468563343 C125.54250957691485,49.353730248767064 124.76503284685273,48.4699674867617 123.80932703791444,48.4699674867617 z" id="svg_13"/>
	<rect x="93.948968878811" y="45.74190448369766" width="29.86035448995846" height="2.7283047552184074" id="svg_14"/>
	<rect x="65.42194808177095" y="87.82677570470338" width="10.131328049075433" height="2.7283047552184074" id="svg_15"/>
</g></g></svg>