<svg id="Layer_1" data-name="Layer 1" xmlns="http://www.w3.org/2000/svg" viewBox="0 0 38 38"><defs><style>.cls-1,.cls-2,.cls-3{fill:none;stroke:#323232;stroke-linejoin:round;}.cls-1{stroke-linecap:round;}.cls-1,.cls-2{stroke-width:0.5px;}.cls-3{stroke-width:0.75px;}</style></defs><title>category_icon</title><path class="cls-1" d="M2.86 22.66h1.7M11.38 22.66h13.89"/><circle class="cls-2" cx="29.89" cy="23.43" r="3.24"/><circle class="cls-2" cx="29.89" cy="23.43" r="1.73"/><circle class="cls-2" cx="7.98" cy="23.43" r="3.24"/><circle class="cls-2" cx="7.98" cy="23.43" r="1.73"/><path class="cls-3" d="M32.05 16.88s.13-.09-.06-.53-2.56-4.06-2.56-4.06-.62-.94-2.78-.94H5s-.91.06-1.12 1.63l-1 4v5.66l-.48.48v1.11a1 1 0 0 0 1.06.77h1.45a3.45 3.45 0 0 1-.41-1.6 3.48 3.48 0 0 1 7 0 3.45 3.45 0 0 1-.41 1.6h15.72a3.45 3.45 0 0 1-.41-1.6 3.48 3.48 0 0 1 7 0A3.45 3.45 0 0 1 33 25h1.4a1.81 1.81 0 0 0 1.09-1v-5.78z"/><path class="cls-1" d="M35.49 22.73h-1.16M35.49 19.71h-1.3v1.07s0 .8.72.84h.58M7.71 12.75h17.94v4H7.71zM26.65 12.75v4h1.79s.82 0 1-.73a4.61 4.61 0 0 0-1.58-3 1.59 1.59 0 0 0-1.21-.27zM6.75 16.75h-2l.45-3a1.15 1.15 0 0 1 1.13-1h.43zM21.1 12.75v4M21.1 18.19v3.54"/></svg>