<svg xmlns="http://www.w3.org/2000/svg" xmlns:xlink="http://www.w3.org/1999/xlink" version="1.1" enable-background="new 0 0 1000 1000" xml:space="preserve" width="150" height="150" style=""><rect id="backgroundrect" width="100%" height="100%" x="0" y="0" fill="none" stroke="none" class="" style=""/>
<metadata> Svg Vector Icons : http://www.onlinewebfonts.com/icon </metadata>

<g class="currentLayer" style=""><title>Layer 1</title><g id="svg_1" class="" fill="#ffffff" fill-opacity="1" stroke="#000000" stroke-opacity="1" stroke-width="2"><path d="M106.22055096686879,99.64592395781446 c2.491132014632778,0 4.467663988684136,1.8202130574626978 4.467663988684136,4.138817785421135 c0,2.3077701264259205 -1.9648365185835994,4.138817785421135 -4.467663988684136,4.138817785421135 c-2.491132014632778,0 -4.467663988684136,-1.8202130574626978 -4.467663988684136,-4.138817785421135 C101.75288697818462,101.46613701527717 103.72941895223599,99.64592395781446 106.22055096686879,99.64592395781446 L106.22055096686879,99.64592395781446 zM21.147807894386027,76.16734243685218 L21.147807894386027,76.16734243685218 c0,1.8202130574626978 0.7835955163398882,3.402064881210042 1.9648365185835994,4.626374854384357 l0,0 c1.3098910123890666,1.094294754784122 3.0174275106819564,1.8202130574626978 4.853614019120201,1.8202130574626978 c1.9648365185835994,0 3.672373016876489,-0.7259183026785763 4.993959484733315,-1.8202130574626978 l0.12865001014535488,-0.23836123371535342 c1.1812410022437112,-1.094294754784122 1.8361865084382445,-2.676146578531466 1.8361865084382445,-4.377179019136487 c0,-3.0445230306370124 -1.3098910123890666,-4.138817785421135 -2.8887775005366008,-5.352293157062932 c-0.6549455061945334,-0.4875570689632228 -1.4385410225344208,-1.094294754784122 -1.4385410225344208,-3.1637036474946885 l0,0 v-0.1191806168576767 V45.277893467648894 l21.005038020096094,19.458944352398838 v20.67241972404064 H20.621512398336847 H20.48116693272373 c-2.491132014632778,0 -4.327318523071022,1.9502282758528904 -4.327318523071022,4.138817785421135 c0,8.028439735594398 0,6.208226678131701 0,14.225831812193587 l0,0 c0,2.3077701264259205 1.9648365185835994,4.138817785421135 4.327318523071022,4.138817785421135 H30.07144041628654 c0.7835955163398882,2.676146578531466 2.362482004487423,5.233112540205256 4.467663988684136,7.17250621452563 c3.0174275106819564,2.9145078122468195 7.356441489220737,4.745555471242033 12.210055508340938,4.745555471242033 c4.724964008974846,0 9.063977987513628,-1.8202130574626978 12.210055508340938,-4.745555471242033 c2.1051819841967134,-1.9502282758528904 3.672373016876489,-4.496359635994164 4.467663988684136,-7.17250621452563 h25.858652039216295 l0,0 c0.7835955163398882,2.676146578531466 2.362482004487423,5.233112540205256 4.467663988684136,7.17250621452563 l0,0 c3.1460775208273106,2.9145078122468195 7.485091499366092,4.745555471242033 12.210055508340938,4.745555471242033 c4.5963139988294905,0 8.794982511755158,-1.701032440605021 11.812410022437115,-4.496359635994164 l0.25730002029070975,-0.23836123371535342 c2.1051819841967134,-1.9502282758528904 3.672373016876489,-4.496359635994164 4.467663988684136,-7.17250621452563 h3.8127184824896045 h0.12865001014535488 c2.491132014632778,0 4.327318523071022,-1.8202130574626978 4.327318523071022,-4.138817785421135 V74.8346864483527 l0,0 c0,-0.6067376858208994 -0.12865001014535488,-1.2134753716417985 -0.5262954960491788,-1.8202130574626978 L117.63531550340207,49.53589186992771 c-0.6549455061945334,-1.4626712068896681 -2.233831994342068,-2.676146578531466 -4.070018502780313,-2.676146578531466 h-9.97622351399887 h-1.4385410225344208 H89.14518598393987 H89.0165359737945 c-2.491132014632778,0 -4.467663988684136,1.8202130574626978 -4.467663988684136,4.138817785421135 v33.078038478771525 l-25.344051998634882,-23.83612337153533 h-0.12865001014535488 l0,0 L31.124031408384894,34.20493070141748 c-1.7075364982928896,-1.5818518237473442 -4.467663988684136,-1.5818518237473442 -6.175200486977026,0 c-1.7075364982928896,1.5818518237473442 -1.7075364982928896,4.138817785421135 0,5.8398502260261544 l0.39764548590382415,0.36837645210554587 v26.999827019030015 v0.1191806168576767 c0,4.377179019136487 1.7075364982928896,5.720669609168478 3.415072996585779,7.053325597667953 c0.5262954960491788,0.36837645210554587 0.923940981953002,0.7259183026785763 0.923940981953002,1.5818518237473442 c0,0.36837645210554587 -0.12865001014535488,0.7259183026785763 -0.39764548590382415,1.094294754784122 h-0.12865001014535488 c-0.25730002029070975,0.23836123371535342 -0.6549455061945334,0.36837645210554587 -1.1812410022437112,0.36837645210554587 c-0.39764548590382415,0 -0.7835955163398882,-0.1191806168576767 -1.1812410022437112,-0.36837645210554587 l0,0 c-0.25730002029070975,-0.36837645210554587 -0.5262954960491788,-0.6067376858208994 -0.5262954960491788,-1.094294754784122 c0,-1.3326559884994753 -1.1812410022437112,-2.437785344816113 -2.6314774802458922,-2.437785344816113 S21.147807894386027,74.70467122996251 21.147807894386027,76.16734243685218 L21.147807894386027,76.16734243685218 zM60.526406454332324,72.8844581724998 L60.526406454332324,72.8844581724998 l13.391296510584649,12.524799371588562 H60.526406454332324 V72.8844581724998 L60.526406454332324,72.8844581724998 zM102.53648249452453,55.12654626070598 L102.53648249452453,55.12654626070598 H103.98671897252669 h7.356441489220737 l7.216096023607624,13.261552275799655 h-24.677411036972586 v-1.701032440605021 v-0.1191806168576767 l0,0 v-7.17250621452563 l0,0 v-4.138817785421135 h8.666332501609803 V55.12654626070598 zM85.07516748115955,93.55687789654046 L85.07516748115955,93.55687789654046 v6.078211459741509 H59.61416092784709 c-2.491132014632778,0 -4.327318523071022,1.8202130574626978 -4.327318523071022,4.138817785421135 v0.1191806168576767 c0,2.069408892710568 -1.0525909920983574,4.0088025670309415 -2.491132014632778,5.471473773920609 c-1.4385410225344208,1.3326559884994753 -3.5437230067311347,2.1885895095682435 -5.9062050112185585,2.1885895095682435 c-2.362482004487423,0 -4.327318523071022,-0.8559335210687685 -5.9062050112185585,-2.1885895095682435 c-1.4385410225344208,-1.3326559884994753 -2.491132014632778,-3.402064881210042 -2.491132014632778,-5.471473773920609 c0,-2.3077701264259205 -1.9648365185835994,-4.138817785421135 -4.467663988684136,-4.138817785421135 l0,0 H24.948830921407872 c0,-5.352293157062932 0,-0.7259183026785763 0,-6.078211459741509 h60.12633655975169 V93.55687789654046 zM121.05038849998783,73.25283462460536 L121.05038849998783,73.25283462460536 H93.88184544838249 v26.393089333209115 c2.233831994342068,0.23836123371535342 3.8127184824896045,2.069408892710568 3.8127184824896045,4.0088025670309415 c0,2.1885895095682435 0.923940981953002,4.138817785421135 2.491132014632778,5.471473773920609 l0,0 l0,0 c1.4385410225344208,1.3326559884994753 3.5437230067311347,2.1885895095682435 5.9062050112185585,2.1885895095682435 c2.233831994342068,0 4.198668512925667,-0.7259183026785763 5.7775550010732015,-2.069408892710568 l0.12865001014535488,-0.1191806168576767 c1.4385410225344208,-1.3326559884994753 2.362482004487423,-3.282884264352366 2.362482004487423,-5.471473773920609 v-0.1191806168576767 c0,-2.3077701264259205 1.9648365185835994,-4.138817785421135 4.467663988684136,-4.138817785421135 h3.2864229864404253 V75.79896598474662 L121.05038849998783,73.25283462460536 L121.05038849998783,73.25283462460536 zM46.877809923456965,99.64592395781446 L46.877809923456965,99.64592395781446 c2.491132014632778,0 4.467663988684136,1.8202130574626978 4.467663988684136,4.138817785421135 c0,2.3077701264259205 -1.9648365185835994,4.138817785421135 -4.467663988684136,4.138817785421135 s-4.327318523071022,-1.8202130574626978 -4.327318523071022,-4.138817785421135 C42.410145934772835,101.46613701527717 44.38667790882419,99.64592395781446 46.877809923456965,99.64592395781446 L46.877809923456965,99.64592395781446 z" id="svg_2" fill="#ffffff" fill-opacity="1" stroke="#000000" stroke-opacity="1" stroke-width="2"/></g></g></svg>