<svg xmlns="http://www.w3.org/2000/svg" xmlns:xlink="http://www.w3.org/1999/xlink" version="1.1" style="" xml:space="preserve" width="150" height="150"><rect id="backgroundrect" width="100%" height="100%" x="0" y="0" fill="none" stroke="none"/>





































<g class="currentLayer" style=""><title>Layer 1</title><g class="selected" fill="#dadada" fill-opacity="1" stroke="#242424" stroke-opacity="1"><path style="" d="M101.1475651010847,75.98032924008909 c0,0.6627607472265047 -0.5612560236722242,1.2070637323569093 -1.2531990202664112,1.2070637323569093 h-20.775859233043477 c-0.6919429965941879,0 -1.2531990202664112,-0.5422166448977933 -1.2531990202664112,-1.2070637323569093 v-20.01101643331005 c0,-0.6683243211801357 0.5612560236722242,-1.2089182570081196 1.2531990202664112,-1.2089182570081196 h20.775859233043477 c0.6919429965941879,0 1.2531990202664112,0.5405939358279835 1.2531990202664112,1.2089182570081196 V75.98032924008909 z" id="svg_1" class="" fill="#dadada" fill-opacity="1" stroke="#242424" stroke-opacity="1"/><path style="" d="M101.1475651010847,55.96931280677903 v20.01101643331005 c0,0.6627607472265047 -0.5612560236722242,1.2070637323569093 -1.2531990202664112,1.2070637323569093 h-20.775859233043477 " id="svg_2" class="" fill="#dadada" fill-opacity="1" stroke="#242424" stroke-opacity="1"/><path style="" d="M77.86554850333332,55.96931280677903 c0,-0.6683243211801357 0.5612560236722242,-1.2089182570081196 1.2531990202664112,-1.2089182570081196 h20.775859233043477 c0.6919429965941879,0 1.2531990202664112,0.5405939358279835 1.2531990202664112,1.2089182570081196 v20.01101643331005 c0,0.6627607472265047 -0.5612560236722242,1.2070637323569093 -1.2531990202664112,1.2070637323569093 " id="svg_3" class="" fill="#dadada" fill-opacity="1" stroke="#242424" stroke-opacity="1"/><path style="" d="M127.0365822341781,75.98032924008909 c0,0.6627607472265047 -0.5612560236722242,1.2070637323569093 -1.2531990202664112,1.2070637323569093 h-20.775859233043477 c-0.6957938097926247,0 -1.2531990202664112,-0.5422166448977933 -1.2531990202664112,-1.2070637323569093 v-20.01101643331005 c0,-0.6683243211801357 0.5574052104737872,-1.2089182570081196 1.2531990202664112,-1.2089182570081196 h20.775859233043477 c0.6919429965941879,0 1.2531990202664112,0.5405939358279835 1.2531990202664112,1.2089182570081196 L127.0365822341781,75.98032924008909 L127.0365822341781,75.98032924008909 z" id="svg_4" class="" fill="#dadada" fill-opacity="1" stroke="#242424" stroke-opacity="1"/><path style="" d="M127.0365822341781,55.96931280677903 v20.01101643331005 c0,0.6627607472265047 -0.5612560236722242,1.2070637323569093 -1.2531990202664112,1.2070637323569093 h-20.775859233043477 " id="svg_5" class="" fill="#dadada" fill-opacity="1" stroke="#242424" stroke-opacity="1"/><path style="" d="M103.75432496060179,55.96931280677903 c0,-0.6683243211801357 0.5574052104737872,-1.2089182570081196 1.2531990202664112,-1.2089182570081196 h20.775859233043477 c0.6919429965941879,0 1.2531990202664112,0.5405939358279835 1.2531990202664112,1.2089182570081196 v20.01101643331005 c0,0.6627607472265047 -0.5612560236722242,1.2070637323569093 -1.2531990202664112,1.2070637323569093 " id="svg_6" class="" fill="#dadada" fill-opacity="1" stroke="#242424" stroke-opacity="1"/><path style="" d="M114.09399907423061,51.311210514100004 c0,0.6627607472265047 -0.5648661610457582,1.2089182570081196 -1.25512442686563,1.2089182570081196 h-20.77393382644426 c-0.6957938097926247,0 -1.2568091576399465,-0.5440711695490044 -1.2568091576399465,-1.2089182570081196 V31.302048605441158 c0,-0.6701788458313472 0.5612560236722242,-1.2105409660779292 1.2568091576399465,-1.2105409660779292 h20.77393382644426 c0.6900175899949684,0 1.25512442686563,0.5405939358279835 1.25512442686563,1.2105409660779292 V51.311210514100004 z" id="svg_7" class="" fill="#dadada" fill-opacity="1" stroke="#242424" stroke-opacity="1"/><path style="" d="M114.09399907423061,31.302048605441158 v20.00916190865884 c0,0.6627607472265047 -0.5648661610457582,1.2089182570081196 -1.25512442686563,1.2089182570081196 h-20.77393382644426 " id="svg_8" class="" fill="#dadada" fill-opacity="1" stroke="#242424" stroke-opacity="1"/><path style="" d="M90.80813166328078,31.302048605441158 c0,-0.6701788458313472 0.5612560236722242,-1.2105409660779292 1.2568091576399465,-1.2105409660779292 h20.77393382644426 c0.6900175899949684,0 1.25512442686563,0.5405939358279835 1.25512442686563,1.2105409660779292 v20.00916190865884 c0,0.6627607472265047 -0.5648661610457582,1.2089182570081196 -1.25512442686563,1.2089182570081196 " id="svg_9" class="" fill="#dadada" fill-opacity="1" stroke="#242424" stroke-opacity="1"/><path style="" d="M128.6081953707903,69.86688872737227 H75.57527735356275 v-20.916719909845188 c0,-3.553269231720126 -2.995451316734349,-6.434736908539096 -6.680679547638763,-6.434736908539096 H37.714563338177875 c-3.689079044102851,0 -6.680679547638763,2.8814676768189695 -6.680679547638763,6.434736908539096 L16.28093707567635,96.67983795016119 c0,3.553269231720126 2.989675096936693,6.434736908539096 6.680679547638763,6.434736908539096 h33.8777697890763 h12.053285986933384 h59.71528229564059 c1.6474260214564205,0 2.9802887397655016,-1.2854173988705704 2.9802887397655016,-2.8705723444931066 V72.73375202256297 C131.5901688413301,71.14882889252182 130.25730612302104,69.86688872737227 128.6081953707903,69.86688872737227 z" id="svg_10" class="" fill="#dadada" fill-opacity="1" stroke="#242424" stroke-opacity="1"/><path style="" d="M19.594802508756473,85.95396281430142 L16.28093707567635,96.67983795016119 c0,3.553269231720126 2.989675096936693,6.434736908539096 6.680679547638763,6.434736908539096 h33.8777697890763 h12.053285986933384 h59.71528229564059 c1.6474260214564205,0 2.9802887397655016,-1.2854173988705704 2.9802887397655016,-2.8705723444931066 v-14.290271515487161 H19.594802508756473 z" id="svg_11" class="" fill="#dadada" fill-opacity="1" stroke="#242424" stroke-opacity="1"/><g id="svg_12" class="" fill="#dadada" fill-opacity="1" stroke="#242424" stroke-opacity="1">
	<path style="" d="M75.57527735356275,69.86688872737227 v-20.916719909845188 c0,-0.062126575815565944 -0.017087983568065155,-0.11683505302628822 -0.017087983568065155,-0.17710710419064324 h-6.665516970669916 c-3.689079044102851,0 -4.824828261816927,2.8796131521677597 -4.824828261816927,6.434736908539096 v8.222498672306424 c0,3.553269231720126 2.9935259101351295,6.434736908539096 6.680679547638763,6.434736908539096 h4.8267536684161465 V69.86688872737227 z" id="svg_13" fill="#dadada" fill-opacity="1" stroke="#242424" stroke-opacity="1"/>
	<path style="" d="M52.190973530227886,48.77306171333645 H31.050971774107175 c0,0.060272051164355064 -0.017087983568065155,0.11498052837507734 -0.017087983568065155,0.17710710419064324 L24.60158169419956,69.76303534690447 c0.3451291329099361,0.052853952559511336 0.6900175899949684,0.10408519604921315 1.0522347064729693,0.10408519604921315 h26.537157129555357 c3.687394313328536,0 6.680679547638763,-2.8814676768189695 6.680679547638763,-6.434736908539096 v-8.222498672306424 C58.87165307786664,51.65267486550422 55.878127167731506,48.77306171333645 52.190973530227886,48.77306171333645 z" id="svg_14" fill="#dadada" fill-opacity="1" stroke="#242424" stroke-opacity="1"/>
</g><ellipse style="" cx="26.668024246017655" cy="87.65039110665144" rx="1.7631911446483428" ry="5.985709929280048" id="svg_15" class="" fill="#dadada" fill-opacity="1" stroke="#242424" stroke-opacity="1"/><path style="" d="M26.669709057585244,93.64143112473349 c-0.9706456018310808,0 -1.7612656866352214,-2.6804835677439875 -1.7612656866352214,-5.985710127364653 c0,-3.308703793341686 0.7906200848041406,-5.989187361085672 1.7612656866352214,-5.989187361085672 " id="svg_16" class="" fill="#dadada" fill-opacity="1" stroke="#242424" stroke-opacity="1"/><g id="svg_17" class="" fill="#dadada" fill-opacity="1" stroke="#242424" stroke-opacity="1">
	<path style="" d="M41.257792832389924,69.86688872737227 l17.259344755395595,-16.625581682524512 c-0.6199809249483916,-1.846179290280473 -2.060666412813714,-3.325162699621183 -3.9280701382308623,-4.018986734755469 l-21.431941531727222,20.644568417279984 H41.257792832389924 z" id="svg_18" fill="#dadada" fill-opacity="1" stroke="#242424" stroke-opacity="1"/>
	<path style="" d="M45.4039152679823,69.86688872737227 h6.786817586420689 c3.687394313328536,0 6.680679547638763,-2.8814676768189695 6.680679547638763,-6.434736908539096 v-6.536967579937099 L45.4039152679823,69.86688872737227 z" id="svg_19" fill="#dadada" fill-opacity="1" stroke="#242424" stroke-opacity="1"/>
	<path style="" d="M37.72972591514672,48.77306171333645 h-6.678754141039544 c0,0.060272051164355064 -0.017087983568065155,0.11498052837507734 -0.017087983568065155,0.17710710419064324 l-2.7641618490032136,8.929072564417787 L37.72972591514672,48.77306171333645 z" id="svg_20" fill="#dadada" fill-opacity="1" stroke="#242424" stroke-opacity="1"/>
	<path style="" d="M75.57527735356275,48.95016881752709 c0,-0.062126575815565944 -0.017087983568065155,-0.11683505302628822 -0.017087983568065155,-0.17710710419064324 h-1.018058739336838 l-10.470361086550787,10.086759577936203 v4.5704760029093165 c0,2.56735756402012 1.575463949810625,4.76775106268188 3.8313184566201266,5.799330399917954 l7.6741893528355645,-7.389817103912721 L75.57527735356275,48.95016881752709 L75.57527735356275,48.95016881752709 z" id="svg_21" fill="#dadada" fill-opacity="1" stroke="#242424" stroke-opacity="1"/>
	<path style="" d="M134.6518060099126,105.6784551889994 c0,1.3257533100344079 -1.114810420947574,2.39743674285292 -2.4890693811398545,2.39743674285292 H17.70477525579851 C16.326424806582885,108.07589193185231 15.217390605432968,107.0039766834524 15.217390605432968,105.6784551889994 v-8.253561960214208 c0,-1.3257533100344079 1.1090342011499181,-2.39743674285292 2.4873846503655392,-2.39743674285292 h114.45603596637501 c1.3764250426164018,0 2.4890693811398545,1.0719152483999133 2.4890693811398545,2.39743674285292 v8.253561960214208 H134.6518060099126 z" id="svg_22" fill="#dadada" fill-opacity="1" stroke="#242424" stroke-opacity="1"/>
</g><path style="" d="M132.16273662877273,95.02745648593226 H17.70477525579851 C16.326424806582885,95.02745648593226 15.217390605432968,96.09913991875078 15.217390605432968,97.42489322878517 v1.8185932360937105 c0,1.3257533100344079 1.1090342011499181,2.39743674285292 2.4873846503655392,2.39743674285292 h114.45603596637501 c1.3764250426164018,0 2.4890693811398545,-1.0719152483999133 2.4890693811398545,-2.39743674285292 v-1.8185932360937105 C134.6518060099126,96.09913991875078 133.53723626478995,95.02745648593226 132.16273662877273,95.02745648593226 z" id="svg_23" class="" fill="#dadada" fill-opacity="1" stroke="#242424" stroke-opacity="1"/><circle style="" cx="39.420955524322835" cy="109.53679429179971" r="8.091058731079102" id="svg_24" class="" fill="#dadada" fill-opacity="1" stroke="#242424" stroke-opacity="1"/><path style="" d="M39.41902953013615,101.44017091423822 c4.639026524992332,0 8.4022337231651,3.624668430791747 8.4022337231651,8.096390996024084 c0,4.466390806860105 -3.7612817915735492,8.08920471300064 -8.4022337231651,8.08920471300064 " id="svg_25" class="" fill="#dadada" fill-opacity="1" stroke="#242424" stroke-opacity="1"/><path style="" d="M39.41902953013615,121.43496025685018 c-6.811607196385628,0 -12.35292738893678,-5.339176470836245 -12.35292738893678,-11.898166531006472 c0,-6.564553634123861 5.541320192551152,-11.901875580308895 12.35292738893678,-11.901875580308895 c6.813532602984846,0 12.354852795535999,5.3354674215338225 12.354852795535999,11.901875580308895 C51.771956919072935,116.09392926136273 46.23063672652179,121.43496025685018 39.41902953013615,121.43496025685018 zM39.41902953013615,105.25098725689527 c-2.4512832766301895,0 -4.4438384309965455,1.922678432142924 -4.4438384309965455,4.285574653367039 c0,2.3591871719216937 1.9925551543663569,4.281865604064617 4.4438384309965455,4.281865604064617 c2.453208683229408,0 4.451299381568518,-1.922678432142924 4.451299381568518,-4.281865604064617 C43.868403505105455,107.17389750461959 41.87223821336556,105.25098725689527 39.41902953013615,105.25098725689527 z" id="svg_26" class="" fill="#dadada" fill-opacity="1" stroke="#242424" stroke-opacity="1"/><circle style="" cx="111.9782165460631" cy="109.53494078586932" r="8.091058731079102" id="svg_27" class="" fill="#dadada" fill-opacity="1" stroke="#242424" stroke-opacity="1"/><path style="" d="M106.03111826417779,103.81210794313698 c3.281614872543214,-3.157096403105193 8.602957361133639,-3.157096403105193 11.88096209630332,0 c3.281614872543214,3.158950927756404 3.2777640593447774,8.28462524812199 0,11.443576175878396 " id="svg_28" class="" fill="#dadada" fill-opacity="1" stroke="#242424" stroke-opacity="1"/><path style="" d="M120.71017750079557,117.94914935931784 c-4.819052042019273,4.6416433863995366 -12.656178928313711,4.6416433863995366 -17.47354623955867,0 c-4.819052042019273,-4.6416433863995366 -4.819052042019273,-12.184922405199963 0,-16.826565791599496 c4.817126635420054,-4.643497911050746 12.654253521714493,-4.643497911050746 17.47354623955867,0 C125.52561940544129,105.7623724294667 125.52561940544129,113.30912868198813 120.71017750079557,117.94914935931784 zM108.83114081109146,106.50371865878823 c-1.7384014832695005,1.6706948951596399 -1.7384014832695005,4.387805324765042 0,6.058732035506081 c1.7328659392967467,1.6706948951596399 4.553586607152007,1.6706948951596399 6.2864525464487535,0 c1.7345506700710631,-1.6706948951596399 1.7345506700710631,-4.387805324765042 0,-6.058732035506081 C113.38496809406836,104.83487828827981 110.5640067503882,104.83487828827981 108.83114081109146,106.50371865878823 z" id="svg_29" class="" fill="#dadada" fill-opacity="1" stroke="#242424" stroke-opacity="1"/><g id="svg_30" class="" fill="#dadada" fill-opacity="1" stroke="#242424" stroke-opacity="1">
</g><g id="svg_31" class="" fill="#dadada" fill-opacity="1" stroke="#242424" stroke-opacity="1">
</g><g id="svg_32" class="" fill="#dadada" fill-opacity="1" stroke="#242424" stroke-opacity="1">
</g><g id="svg_33" class="" fill="#dadada" fill-opacity="1" stroke="#242424" stroke-opacity="1">
</g><g id="svg_34" class="" fill="#dadada" fill-opacity="1" stroke="#242424" stroke-opacity="1">
</g><g id="svg_35" class="" fill="#dadada" fill-opacity="1" stroke="#242424" stroke-opacity="1">
</g><g id="svg_36" class="" fill="#dadada" fill-opacity="1" stroke="#242424" stroke-opacity="1">
</g><g id="svg_37" class="" fill="#dadada" fill-opacity="1" stroke="#242424" stroke-opacity="1">
</g><g id="svg_38" class="" fill="#dadada" fill-opacity="1" stroke="#242424" stroke-opacity="1">
</g><g id="svg_39" class="" fill="#dadada" fill-opacity="1" stroke="#242424" stroke-opacity="1">
</g><g id="svg_40" class="" fill="#dadada" fill-opacity="1" stroke="#242424" stroke-opacity="1">
</g><g id="svg_41" class="" fill="#dadada" fill-opacity="1" stroke="#242424" stroke-opacity="1">
</g><g id="svg_42" class="" fill="#dadada" fill-opacity="1" stroke="#242424" stroke-opacity="1">
</g><g id="svg_43" class="" fill="#dadada" fill-opacity="1" stroke="#242424" stroke-opacity="1">
</g><g id="svg_44" class="" fill="#dadada" fill-opacity="1" stroke="#242424" stroke-opacity="1">
</g></g></g></svg>