<svg xmlns="http://www.w3.org/2000/svg" xmlns:xlink="http://www.w3.org/1999/xlink" version="1.1" style="enable-background:new 0 0 297 297;" xml:space="preserve" width="150" height="150"><rect id="backgroundrect" width="100%" height="100%" x="0" y="0" fill="none" stroke="none" class="" style=""/>
















<g class="currentLayer" style=""><title>Layer 1</title><g id="svg_1" class="" fill="#242424" fill-opacity="1" stroke-width="1" stroke="#0404b8" stroke-opacity="1">
	<path d="M58.14894209532852,73.46843112649361 c-9.257778399663671,0 -16.789515027993026,7.235055960927024 -16.789515027993026,16.128163633265444 s7.531736628329359,16.128163633265444 16.789515027993026,16.128163633265444 s16.789815732134375,-7.235055960927024 16.789815732134375,-16.128163633265444 S67.4067204949922,73.46843112649361 58.14894209532852,73.46843112649361 zM58.14894209532852,101.70094997142856 c-6.948069889973976,0 -12.600706339023175,-5.429974925280721 -12.600706339023175,-12.104355211669503 s5.6526364490492,-12.104355211669503 12.600706339023175,-12.104355211669503 s12.60100704316452,5.429974925280721 12.60100704316452,12.104355211669503 S65.0970119853025,101.70094997142856 58.14894209532852,101.70094997142856 z" id="svg_2" fill="#242424" fill-opacity="1" stroke-width="1" stroke="#0404b8" stroke-opacity="1"/>
	<path d="M98.96321449627536,74.3714049330915 l-1.4391700204888527,-8.085746255370674 c-0.2456752834808597,-1.3804580363824117 -1.4914925410833084,-2.3897320223878826 -2.9493062183357033,-2.3897320223878826 h-30.60266046492908 c-1.8772959544320758,-0.3919819115653769 -3.824956677939452,-0.6005382418160771 -5.822834993051851,-0.6005382418160771 c-2.4236753792603767,0 -4.773978948031975,0.30561301579673417 -7.01332268864637,0.8761099025628495 V58.98185423119871 h53.756879348682055 c1.6523692567041897,0 2.992006206407039,-1.286867661034452 2.992006206407039,-2.8741488725685276 s-1.3396369497028506,-2.8741488725685276 -2.992006206407039,-2.8741488725685276 H51.13592011082349 V36.284455054219364 c0,-1.5872812115340764 -1.3396369497028506,-2.8741488725685276 -2.992006206407039,-2.8741488725685276 H37.825852702361715 c-1.6523692567041897,0 -2.992006206407039,1.286867661034452 -2.992006206407039,2.8741488725685276 s1.3396369497028506,2.8741488725685276 2.992006206407039,2.8741488725685276 H45.1519076980094 v27.29401535880679 C36.59416853940259,70.9050947350189 30.769228617361314,79.60957736074555 30.769228617361314,89.59659475975906 c0,14.502464150369393 12.282561357477581,26.301495205425336 27.380014182108557,26.301495205425336 c11.79572135263607,0 21.873219241612865,-7.20270373241168 25.716819576315864,-17.270023984347187 h12.875549924214733 v2.0815192739425936 c0,0.02570846730237181 0.003307745554821858,0.05055035705522546 0.003909153837516745,0.07625882435759726 c-3.0199716915523522,1.1476375347452012 -5.162789402794217,3.9784575298378213 -5.162789402794217,7.282717726150522 c0,4.317289351699418 3.656562358784884,7.82981701907965 8.150886455363741,7.82981701907965 c4.494324096578854,0 8.151187159505087,-3.5125276673802297 8.151187159505087,-7.82981701907965 c0,-3.3042601963127014 -2.1431184153832152,-6.135080191405326 -5.163090106935564,-7.282717726150522 c0.0006014082826948835,-0.025419608119199088 0.003909153837516745,-0.05055035705522546 0.003909153837516745,-0.07625882435759726 c0,0 0,-3.8886223238711066 0,-5.1977321420098574 c0,-0.42317870334803026 -0.29649428336857736,-1.6690283603719556 -0.29649428336857736,-1.6690283603719556 l1.6637960140753922,3.1965157209892787 c0.5069871823117862,0.9740331656584003 1.5426122451123723,1.5890143666331127 2.6762668579922257,1.5890143666331127 h10.317760497913397 c1.6523692567041897,0 2.992006206407039,-1.286867661034452 2.992006206407039,-2.8741488725685276 c0,-1.5872812115340764 -1.3396369497028506,-2.8741488725685276 -2.992006206407039,-2.8741488725685276 h-8.468430028626637 L98.96321449627536,74.3714049330915 zM58.149242799469846,110.14979222004733 c-11.797525577484157,0 -21.396001769294482,-9.220096267689932 -21.396001769294482,-20.55319746028828 s9.598175487668975,-20.55319746028828 21.396001769294482,-20.55319746028828 s21.396001769294482,9.220096267689932 21.396001769294482,20.55319746028828 S69.94676837695403,110.14979222004733 58.149242799469846,110.14979222004733 zM85.31605774536308,92.87976823570014 c0.14012812986790776,-1.075711598135196 0.2128985320739886,-2.1713544799093087 0.2128985320739886,-3.2831734759410938 c0,-7.9713580188342785 -3.711591216651466,-15.125244549289771 -9.56088817414189,-19.952370359289038 h16.082559591685193 l4.135884760092706,23.23554383523012 H85.31605774536308 zM99.73331780226616,110.14979222004733 c-1.1946975535733837,0 -2.166874042549661,-0.9338817391973918 -2.166874042549661,-2.0815192739425936 c0,-1.1479263939283753 0.972176488976278,-2.081808133125767 2.166874042549661,-2.081808133125767 c1.1949982577147311,0 2.167174746691008,0.9338817391973918 2.167174746691008,2.081808133125767 C101.90049254895716,109.21591048084996 100.92831605998089,110.14979222004733 99.73331780226616,110.14979222004733 z" id="svg_3" fill="#242424" fill-opacity="1" stroke-width="1" stroke="#0404b8" stroke-opacity="1"/>
</g><g id="svg_4">
</g><g id="svg_5">
</g><g id="svg_6">
</g><g id="svg_7">
</g><g id="svg_8">
</g><g id="svg_9">
</g><g id="svg_10">
</g><g id="svg_11">
</g><g id="svg_12">
</g><g id="svg_13">
</g><g id="svg_14">
</g><g id="svg_15">
</g><g id="svg_16">
</g><g id="svg_17">
</g><g id="svg_18">
</g></g></svg>